<svg width="2024" height="2024" viewBox="0 0 2024 2024" fill="none" xmlns="http://www.w3.org/2000/svg">
<circle cx="1012" cy="1012" r="1012" fill="black"/>
<path d="M486.609 1062.81C474.565 1080.07 457.719 1093.01 436.072 1101.63C414.588 1110.1 389.523 1114.33 360.877 1114.33C331.906 1114.33 306.189 1107.57 283.729 1094.06C261.268 1080.39 243.852 1061.02 231.482 1035.96C219.275 1010.89 213.009 981.84 212.684 948.8V917.794C212.684 864.246 225.135 822.742 250.037 793.282C275.102 763.823 310.258 749.093 355.506 749.093C392.615 749.093 422.482 758.614 445.105 777.657C467.729 796.538 481.564 823.393 486.609 858.224H439.734C430.945 811.186 402.951 787.667 355.75 787.667C324.337 787.667 300.493 798.735 284.217 820.87C268.104 842.843 259.965 874.744 259.803 916.573V945.626C259.803 985.502 268.917 1017.24 287.146 1040.84C305.376 1064.28 330.034 1076 361.121 1076C378.699 1076 394.08 1074.04 407.264 1070.14C420.447 1066.23 431.352 1059.64 439.979 1050.36V970.528H357.703V932.443H486.609V1062.81ZM695.35 965.646H611.854V1109.44H564.734V753.976H682.41C722.449 753.976 753.211 763.09 774.695 781.319C796.342 799.549 807.166 826.079 807.166 860.909C807.166 883.045 801.144 902.332 789.1 918.771C777.218 935.209 760.617 947.498 739.295 955.636L822.791 1106.51V1109.44H772.498L695.35 965.646ZM611.854 927.316H683.875C707.15 927.316 725.623 921.293 739.295 909.249C753.13 897.205 760.047 881.092 760.047 860.909C760.047 838.937 753.455 822.091 740.271 810.372C727.251 798.653 708.37 792.713 683.631 792.55H611.854V927.316ZM923.377 1109.44H876.502V753.976H923.377V1109.44ZM1069.86 753.976L1186.07 1044.01L1302.28 753.976H1363.07V1109.44H1316.2V971.017L1320.59 821.603L1203.89 1109.44H1168.01L1051.55 822.335L1056.19 971.017V1109.44H1009.31V753.976H1069.86ZM1506.38 753.976L1622.6 1044.01L1738.81 753.976H1799.6V1109.44H1752.72V971.017L1757.12 821.603L1640.42 1109.44H1604.53L1488.07 822.335L1492.71 971.017V1109.44H1445.84V753.976H1506.38Z" fill="white"/>
<path d="M703.193 1265.58H657.489V1392.33H638.837V1265.58H593.232V1250.15H703.193V1265.58ZM772.919 1367.43L813.544 1250.15H834.052L781.318 1392.33H764.716L712.079 1250.15H732.489L772.919 1367.43ZM944.696 1328.95C928.616 1324.33 916.897 1318.67 909.54 1311.96C902.249 1305.19 898.603 1296.86 898.603 1286.96C898.603 1275.76 903.062 1266.52 911.982 1259.23C920.966 1251.87 932.62 1248.19 946.943 1248.19C956.708 1248.19 965.4 1250.08 973.017 1253.86C980.699 1257.63 986.624 1262.84 990.79 1269.48C995.022 1276.12 997.138 1283.38 997.138 1291.26H978.29C978.29 1282.67 975.556 1275.93 970.087 1271.04C964.618 1266.1 956.904 1263.62 946.943 1263.62C937.698 1263.62 930.471 1265.67 925.263 1269.77C920.12 1273.81 917.548 1279.44 917.548 1286.67C917.548 1292.46 919.989 1297.38 924.872 1301.42C929.82 1305.39 938.186 1309.03 949.97 1312.35C961.819 1315.67 971.064 1319.35 977.704 1323.39C984.41 1327.36 989.358 1332.01 992.548 1337.35C995.803 1342.69 997.431 1348.97 997.431 1356.2C997.431 1367.72 992.939 1376.97 983.954 1383.93C974.97 1390.84 962.958 1394.29 947.919 1394.29C938.154 1394.29 929.039 1392.43 920.575 1388.72C912.112 1384.94 905.569 1379.8 900.946 1373.29C896.389 1366.78 894.111 1359.39 894.111 1351.12H912.958C912.958 1359.72 916.116 1366.52 922.431 1371.53C928.811 1376.48 937.307 1378.95 947.919 1378.95C957.815 1378.95 965.4 1376.94 970.673 1372.9C975.946 1368.86 978.583 1363.36 978.583 1356.4C978.583 1349.43 976.142 1344.06 971.259 1340.28C966.376 1336.44 957.522 1332.67 944.696 1328.95ZM1062.57 1394.29C1048.24 1394.29 1036.59 1389.6 1027.61 1380.22C1018.62 1370.78 1014.13 1358.19 1014.13 1342.43V1339.11C1014.13 1328.63 1016.12 1319.29 1020.09 1311.08C1024.12 1302.82 1029.72 1296.37 1036.88 1291.75C1044.11 1287.06 1051.92 1284.72 1060.32 1284.72C1074.06 1284.72 1084.74 1289.24 1092.35 1298.29C1099.97 1307.34 1103.78 1320.3 1103.78 1337.16V1344.68H1032.2C1032.46 1355.09 1035.48 1363.52 1041.28 1369.97C1047.14 1376.35 1054.56 1379.54 1063.54 1379.54C1069.92 1379.54 1075.33 1378.24 1079.76 1375.63C1084.18 1373.03 1088.06 1369.58 1091.38 1365.28L1102.41 1373.88C1093.56 1387.48 1080.28 1394.29 1062.57 1394.29ZM1060.32 1299.56C1053.03 1299.56 1046.91 1302.23 1041.96 1307.57C1037.01 1312.84 1033.95 1320.26 1032.78 1329.83H1085.71V1328.47C1085.19 1319.29 1082.72 1312.19 1078.29 1307.18C1073.86 1302.1 1067.87 1299.56 1060.32 1299.56ZM1175.85 1302.88C1173.11 1302.42 1170.15 1302.2 1166.96 1302.2C1155.11 1302.2 1147.07 1307.24 1142.84 1317.33V1392.33H1124.77V1286.67H1142.35L1142.65 1298.88C1148.57 1289.44 1156.97 1284.72 1167.84 1284.72C1171.36 1284.72 1174.03 1285.17 1175.85 1286.08V1302.88ZM1212.18 1392.33H1194.11V1286.67H1212.18V1392.33ZM1192.65 1258.64C1192.65 1255.71 1193.52 1253.24 1195.28 1251.22C1197.11 1249.2 1199.77 1248.19 1203.29 1248.19C1206.81 1248.19 1209.48 1249.2 1211.3 1251.22C1213.12 1253.24 1214.03 1255.71 1214.03 1258.64C1214.03 1261.57 1213.12 1264.01 1211.3 1265.97C1209.48 1267.92 1206.81 1268.9 1203.29 1268.9C1199.77 1268.9 1197.11 1267.92 1195.28 1265.97C1193.52 1264.01 1192.65 1261.57 1192.65 1258.64ZM1285.03 1394.29C1270.71 1394.29 1259.05 1389.6 1250.07 1380.22C1241.08 1370.78 1236.59 1358.19 1236.59 1342.43V1339.11C1236.59 1328.63 1238.58 1319.29 1242.55 1311.08C1246.58 1302.82 1252.18 1296.37 1259.34 1291.75C1266.57 1287.06 1274.38 1284.72 1282.78 1284.72C1296.52 1284.72 1307.2 1289.24 1314.81 1298.29C1322.43 1307.34 1326.24 1320.3 1326.24 1337.16V1344.68H1254.66C1254.92 1355.09 1257.95 1363.52 1263.74 1369.97C1269.6 1376.35 1277.02 1379.54 1286.01 1379.54C1292.39 1379.54 1297.79 1378.24 1302.22 1375.63C1306.64 1373.03 1310.52 1369.58 1313.84 1365.28L1324.87 1373.88C1316.02 1387.48 1302.74 1394.29 1285.03 1394.29ZM1282.78 1299.56C1275.49 1299.56 1269.37 1302.23 1264.42 1307.57C1259.48 1312.84 1256.42 1320.26 1255.24 1329.83H1308.17V1328.47C1307.65 1319.29 1305.18 1312.19 1300.75 1307.18C1296.32 1302.1 1290.33 1299.56 1282.78 1299.56ZM1408.76 1364.31C1408.76 1359.42 1406.9 1355.65 1403.19 1352.98C1399.55 1350.24 1393.13 1347.9 1383.95 1345.95C1374.84 1343.99 1367.58 1341.65 1362.18 1338.92C1356.84 1336.18 1352.87 1332.93 1350.26 1329.15C1347.72 1325.37 1346.45 1320.88 1346.45 1315.67C1346.45 1307.01 1350.1 1299.69 1357.39 1293.7C1364.75 1287.71 1374.12 1284.72 1385.52 1284.72C1397.5 1284.72 1407.2 1287.81 1414.62 1293.99C1422.11 1300.18 1425.85 1308.09 1425.85 1317.72H1407.68C1407.68 1312.78 1405.57 1308.51 1401.34 1304.93C1397.17 1301.35 1391.9 1299.56 1385.52 1299.56C1378.94 1299.56 1373.8 1300.99 1370.09 1303.86C1366.38 1306.72 1364.52 1310.46 1364.52 1315.09C1364.52 1319.45 1366.25 1322.74 1369.7 1324.95C1373.15 1327.16 1379.36 1329.28 1388.35 1331.3C1397.4 1333.32 1404.72 1335.73 1410.32 1338.52C1415.92 1341.32 1420.05 1344.71 1422.72 1348.68C1425.46 1352.59 1426.83 1357.37 1426.83 1363.04C1426.83 1372.48 1423.05 1380.06 1415.5 1385.79C1407.95 1391.45 1398.15 1394.29 1386.1 1394.29C1377.64 1394.29 1370.15 1392.79 1363.64 1389.79C1357.13 1386.8 1352.02 1382.63 1348.31 1377.29C1344.66 1371.89 1342.84 1366.06 1342.84 1359.81H1360.91C1361.23 1365.87 1363.64 1370.69 1368.13 1374.27C1372.69 1377.78 1378.68 1379.54 1386.1 1379.54C1392.94 1379.54 1398.41 1378.17 1402.51 1375.44C1406.68 1372.64 1408.76 1368.93 1408.76 1364.31Z" fill="white"/>
</svg>
